<?xml version="1.0" standalone="no"?>
<svg xmlns="http://www.w3.org/2000/svg" width="500" height="500"><defs><clipPath id="clip-path-dot-color"><rect x="24" y="112" width="11" height="11" transform="rotate(0,29.5,117.5)"/><rect x="24" y="123" width="11" height="11" transform="rotate(0,29.5,128.5)"/><rect x="24" y="167" width="11" height="11" transform="rotate(0,29.5,172.5)"/><rect x="24" y="211" width="11" height="11" transform="rotate(0,29.5,216.5)"/><rect x="24" y="222" width="11" height="11" transform="rotate(0,29.5,227.5)"/><rect x="24" y="244" width="11" height="11" transform="rotate(0,29.5,249.5)"/><rect x="24" y="255" width="11" height="11" transform="rotate(0,29.5,260.5)"/><rect x="24" y="277" width="11" height="11" transform="rotate(0,29.5,282.5)"/><rect x="24" y="321" width="11" height="11" transform="rotate(0,29.5,326.5)"/><rect x="24" y="332" width="11" height="11" transform="rotate(0,29.5,337.5)"/><rect x="24" y="343" width="11" height="11" transform="rotate(0,29.5,348.5)"/><rect x="24" y="354" width="11" height="11" transform="rotate(0,29.5,359.5)"/><rect x="24" y="365" width="11" height="11" transform="rotate(0,29.5,370.5)"/><rect x="35" y="123" width="11" height="11" transform="rotate(0,40.5,128.5)"/><rect x="35" y="156" width="11" height="11" transform="rotate(0,40.5,161.5)"/><rect x="35" y="189" width="11" height="11" transform="rotate(0,40.5,194.5)"/><rect x="35" y="200" width="11" height="11" transform="rotate(0,40.5,205.5)"/><rect x="35" y="211" width="11" height="11" transform="rotate(0,40.5,216.5)"/><rect x="35" y="222" width="11" height="11" transform="rotate(0,40.5,227.5)"/><rect x="35" y="233" width="11" height="11" transform="rotate(0,40.5,238.5)"/><rect x="35" y="266" width="11" height="11" transform="rotate(0,40.5,271.5)"/><rect x="35" y="321" width="11" height="11" transform="rotate(0,40.5,326.5)"/><rect x="35" y="332" width="11" height="11" transform="rotate(0,40.5,337.5)"/><rect x="35" y="354" width="11" height="11" transform="rotate(0,40.5,359.5)"/><rect x="35" y="376" width="11" height="11" transform="rotate(0,40.5,381.5)"/><rect x="46" y="112" width="11" height="11" transform="rotate(0,51.5,117.5)"/><rect x="46" y="123" width="11" height="11" transform="rotate(0,51.5,128.5)"/><rect x="46" y="145" width="11" height="11" transform="rotate(0,51.5,150.5)"/><rect x="46" y="156" width="11" height="11" transform="rotate(0,51.5,161.5)"/><rect x="46" y="178" width="11" height="11" transform="rotate(0,51.5,183.5)"/><rect x="46" y="189" width="11" height="11" transform="rotate(0,51.5,194.5)"/><rect x="46" y="211" width="11" height="11" transform="rotate(0,51.5,216.5)"/><rect x="46" y="222" width="11" height="11" transform="rotate(0,51.5,227.5)"/><rect x="46" y="255" width="11" height="11" transform="rotate(0,51.5,260.5)"/><rect x="46" y="266" width="11" height="11" transform="rotate(0,51.5,271.5)"/><rect x="46" y="310" width="11" height="11" transform="rotate(0,51.5,315.5)"/><rect x="46" y="332" width="11" height="11" transform="rotate(0,51.5,337.5)"/><rect x="46" y="354" width="11" height="11" transform="rotate(0,51.5,359.5)"/><rect x="46" y="376" width="11" height="11" transform="rotate(0,51.5,381.5)"/><rect x="57" y="112" width="11" height="11" transform="rotate(0,62.5,117.5)"/><rect x="57" y="134" width="11" height="11" transform="rotate(0,62.5,139.5)"/><rect x="57" y="156" width="11" height="11" transform="rotate(0,62.5,161.5)"/><rect x="57" y="167" width="11" height="11" transform="rotate(0,62.5,172.5)"/><rect x="57" y="178" width="11" height="11" transform="rotate(0,62.5,183.5)"/><rect x="57" y="189" width="11" height="11" transform="rotate(0,62.5,194.5)"/><rect x="57" y="200" width="11" height="11" transform="rotate(0,62.5,205.5)"/><rect x="57" y="222" width="11" height="11" transform="rotate(0,62.5,227.5)"/><rect x="57" y="233" width="11" height="11" transform="rotate(0,62.5,238.5)"/><rect x="57" y="255" width="11" height="11" transform="rotate(0,62.5,260.5)"/><rect x="57" y="266" width="11" height="11" transform="rotate(0,62.5,271.5)"/><rect x="57" y="277" width="11" height="11" transform="rotate(0,62.5,282.5)"/><rect x="57" y="288" width="11" height="11" transform="rotate(0,62.5,293.5)"/><rect x="57" y="299" width="11" height="11" transform="rotate(0,62.5,304.5)"/><rect x="57" y="321" width="11" height="11" transform="rotate(0,62.5,326.5)"/><rect x="57" y="332" width="11" height="11" transform="rotate(0,62.5,337.5)"/><rect x="57" y="343" width="11" height="11" transform="rotate(0,62.5,348.5)"/><rect x="57" y="354" width="11" height="11" transform="rotate(0,62.5,359.5)"/><rect x="68" y="145" width="11" height="11" transform="rotate(0,73.5,150.5)"/><rect x="68" y="244" width="11" height="11" transform="rotate(0,73.5,249.5)"/><rect x="68" y="255" width="11" height="11" transform="rotate(0,73.5,260.5)"/><rect x="68" y="266" width="11" height="11" transform="rotate(0,73.5,271.5)"/><rect x="68" y="277" width="11" height="11" transform="rotate(0,73.5,282.5)"/><rect x="68" y="321" width="11" height="11" transform="rotate(0,73.5,326.5)"/><rect x="68" y="332" width="11" height="11" transform="rotate(0,73.5,337.5)"/><rect x="68" y="354" width="11" height="11" transform="rotate(0,73.5,359.5)"/><rect x="68" y="376" width="11" height="11" transform="rotate(0,73.5,381.5)"/><rect x="79" y="112" width="11" height="11" transform="rotate(0,84.5,117.5)"/><rect x="79" y="123" width="11" height="11" transform="rotate(0,84.5,128.5)"/><rect x="79" y="134" width="11" height="11" transform="rotate(0,84.5,139.5)"/><rect x="79" y="145" width="11" height="11" transform="rotate(0,84.5,150.5)"/><rect x="79" y="167" width="11" height="11" transform="rotate(0,84.5,172.5)"/><rect x="79" y="189" width="11" height="11" transform="rotate(0,84.5,194.5)"/><rect x="79" y="200" width="11" height="11" transform="rotate(0,84.5,205.5)"/><rect x="79" y="277" width="11" height="11" transform="rotate(0,84.5,282.5)"/><rect x="79" y="321" width="11" height="11" transform="rotate(0,84.5,326.5)"/><rect x="79" y="343" width="11" height="11" transform="rotate(0,84.5,348.5)"/><rect x="79" y="354" width="11" height="11" transform="rotate(0,84.5,359.5)"/><rect x="79" y="365" width="11" height="11" transform="rotate(0,84.5,370.5)"/><rect x="79" y="376" width="11" height="11" transform="rotate(0,84.5,381.5)"/><rect x="90" y="112" width="11" height="11" transform="rotate(0,95.5,117.5)"/><rect x="90" y="134" width="11" height="11" transform="rotate(0,95.5,139.5)"/><rect x="90" y="156" width="11" height="11" transform="rotate(0,95.5,161.5)"/><rect x="90" y="178" width="11" height="11" transform="rotate(0,95.5,183.5)"/><rect x="90" y="200" width="11" height="11" transform="rotate(0,95.5,205.5)"/><rect x="90" y="222" width="11" height="11" transform="rotate(0,95.5,227.5)"/><rect x="90" y="244" width="11" height="11" transform="rotate(0,95.5,249.5)"/><rect x="90" y="266" width="11" height="11" transform="rotate(0,95.5,271.5)"/><rect x="90" y="288" width="11" height="11" transform="rotate(0,95.5,293.5)"/><rect x="90" y="310" width="11" height="11" transform="rotate(0,95.5,315.5)"/><rect x="90" y="332" width="11" height="11" transform="rotate(0,95.5,337.5)"/><rect x="90" y="354" width="11" height="11" transform="rotate(0,95.5,359.5)"/><rect x="90" y="376" width="11" height="11" transform="rotate(0,95.5,381.5)"/><rect x="101" y="112" width="11" height="11" transform="rotate(0,106.5,117.5)"/><rect x="101" y="123" width="11" height="11" transform="rotate(0,106.5,128.5)"/><rect x="101" y="134" width="11" height="11" transform="rotate(0,106.5,139.5)"/><rect x="101" y="156" width="11" height="11" transform="rotate(0,106.5,161.5)"/><rect x="101" y="167" width="11" height="11" transform="rotate(0,106.5,172.5)"/><rect x="101" y="200" width="11" height="11" transform="rotate(0,106.5,205.5)"/><rect x="101" y="233" width="11" height="11" transform="rotate(0,106.5,238.5)"/><rect x="101" y="244" width="11" height="11" transform="rotate(0,106.5,249.5)"/><rect x="101" y="255" width="11" height="11" transform="rotate(0,106.5,260.5)"/><rect x="101" y="310" width="11" height="11" transform="rotate(0,106.5,315.5)"/><rect x="101" y="343" width="11" height="11" transform="rotate(0,106.5,348.5)"/><rect x="101" y="354" width="11" height="11" transform="rotate(0,106.5,359.5)"/><rect x="101" y="376" width="11" height="11" transform="rotate(0,106.5,381.5)"/><rect x="112" y="35" width="11" height="11" transform="rotate(0,117.5,40.5)"/><rect x="112" y="57" width="11" height="11" transform="rotate(0,117.5,62.5)"/><rect x="112" y="79" width="11" height="11" transform="rotate(0,117.5,84.5)"/><rect x="112" y="90" width="11" height="11" transform="rotate(0,117.5,95.5)"/><rect x="112" y="101" width="11" height="11" transform="rotate(0,117.5,106.5)"/><rect x="112" y="112" width="11" height="11" transform="rotate(0,117.5,117.5)"/><rect x="112" y="123" width="11" height="11" transform="rotate(0,117.5,128.5)"/><rect x="112" y="145" width="11" height="11" transform="rotate(0,117.5,150.5)"/><rect x="112" y="156" width="11" height="11" transform="rotate(0,117.5,161.5)"/><rect x="112" y="200" width="11" height="11" transform="rotate(0,117.5,205.5)"/><rect x="112" y="244" width="11" height="11" transform="rotate(0,117.5,249.5)"/><rect x="112" y="266" width="11" height="11" transform="rotate(0,117.5,271.5)"/><rect x="112" y="277" width="11" height="11" transform="rotate(0,117.5,282.5)"/><rect x="112" y="299" width="11" height="11" transform="rotate(0,117.5,304.5)"/><rect x="112" y="310" width="11" height="11" transform="rotate(0,117.5,315.5)"/><rect x="112" y="321" width="11" height="11" transform="rotate(0,117.5,326.5)"/><rect x="112" y="332" width="11" height="11" transform="rotate(0,117.5,337.5)"/><rect x="112" y="376" width="11" height="11" transform="rotate(0,117.5,381.5)"/><rect x="112" y="387" width="11" height="11" transform="rotate(0,117.5,392.5)"/><rect x="112" y="398" width="11" height="11" transform="rotate(0,117.5,403.5)"/><rect x="112" y="409" width="11" height="11" transform="rotate(0,117.5,414.5)"/><rect x="112" y="431" width="11" height="11" transform="rotate(0,117.5,436.5)"/><rect x="112" y="442" width="11" height="11" transform="rotate(0,117.5,447.5)"/><rect x="112" y="464" width="11" height="11" transform="rotate(0,117.5,469.5)"/><rect x="123" y="24" width="11" height="11" transform="rotate(0,128.5,29.5)"/><rect x="123" y="46" width="11" height="11" transform="rotate(0,128.5,51.5)"/><rect x="123" y="101" width="11" height="11" transform="rotate(0,128.5,106.5)"/><rect x="123" y="134" width="11" height="11" transform="rotate(0,128.5,139.5)"/><rect x="123" y="178" width="11" height="11" transform="rotate(0,128.5,183.5)"/><rect x="123" y="189" width="11" height="11" transform="rotate(0,128.5,194.5)"/><rect x="123" y="200" width="11" height="11" transform="rotate(0,128.5,205.5)"/><rect x="123" y="211" width="11" height="11" transform="rotate(0,128.5,216.5)"/><rect x="123" y="222" width="11" height="11" transform="rotate(0,128.5,227.5)"/><rect x="123" y="244" width="11" height="11" transform="rotate(0,128.5,249.5)"/><rect x="123" y="266" width="11" height="11" transform="rotate(0,128.5,271.5)"/><rect x="123" y="277" width="11" height="11" transform="rotate(0,128.5,282.5)"/><rect x="123" y="288" width="11" height="11" transform="rotate(0,128.5,293.5)"/><rect x="123" y="299" width="11" height="11" transform="rotate(0,128.5,304.5)"/><rect x="123" y="332" width="11" height="11" transform="rotate(0,128.5,337.5)"/><rect x="123" y="354" width="11" height="11" transform="rotate(0,128.5,359.5)"/><rect x="123" y="376" width="11" height="11" transform="rotate(0,128.5,381.5)"/><rect x="123" y="398" width="11" height="11" transform="rotate(0,128.5,403.5)"/><rect x="123" y="431" width="11" height="11" transform="rotate(0,128.5,436.5)"/><rect x="123" y="442" width="11" height="11" transform="rotate(0,128.5,447.5)"/><rect x="123" y="464" width="11" height="11" transform="rotate(0,128.5,469.5)"/><rect x="134" y="35" width="11" height="11" transform="rotate(0,139.5,40.5)"/><rect x="134" y="57" width="11" height="11" transform="rotate(0,139.5,62.5)"/><rect x="134" y="68" width="11" height="11" transform="rotate(0,139.5,73.5)"/><rect x="134" y="79" width="11" height="11" transform="rotate(0,139.5,84.5)"/><rect x="134" y="90" width="11" height="11" transform="rotate(0,139.5,95.5)"/><rect x="134" y="101" width="11" height="11" transform="rotate(0,139.5,106.5)"/><rect x="134" y="123" width="11" height="11" transform="rotate(0,139.5,128.5)"/><rect x="134" y="145" width="11" height="11" transform="rotate(0,139.5,150.5)"/><rect x="134" y="167" width="11" height="11" transform="rotate(0,139.5,172.5)"/><rect x="134" y="211" width="11" height="11" transform="rotate(0,139.5,216.5)"/><rect x="134" y="222" width="11" height="11" transform="rotate(0,139.5,227.5)"/><rect x="134" y="244" width="11" height="11" transform="rotate(0,139.5,249.5)"/><rect x="134" y="255" width="11" height="11" transform="rotate(0,139.5,260.5)"/><rect x="134" y="288" width="11" height="11" transform="rotate(0,139.5,293.5)"/><rect x="134" y="310" width="11" height="11" transform="rotate(0,139.5,315.5)"/><rect x="134" y="343" width="11" height="11" transform="rotate(0,139.5,348.5)"/><rect x="134" y="365" width="11" height="11" transform="rotate(0,139.5,370.5)"/><rect x="134" y="409" width="11" height="11" transform="rotate(0,139.5,414.5)"/><rect x="134" y="420" width="11" height="11" transform="rotate(0,139.5,425.5)"/><rect x="134" y="431" width="11" height="11" transform="rotate(0,139.5,436.5)"/><rect x="134" y="442" width="11" height="11" transform="rotate(0,139.5,447.5)"/><rect x="134" y="453" width="11" height="11" transform="rotate(0,139.5,458.5)"/><rect x="145" y="101" width="11" height="11" transform="rotate(0,150.5,106.5)"/><rect x="145" y="112" width="11" height="11" transform="rotate(0,150.5,117.5)"/><rect x="145" y="123" width="11" height="11" transform="rotate(0,150.5,128.5)"/><rect x="145" y="134" width="11" height="11" transform="rotate(0,150.5,139.5)"/><rect x="145" y="156" width="11" height="11" transform="rotate(0,150.5,161.5)"/><rect x="145" y="167" width="11" height="11" transform="rotate(0,150.5,172.5)"/><rect x="145" y="255" width="11" height="11" transform="rotate(0,150.5,260.5)"/><rect x="145" y="277" width="11" height="11" transform="rotate(0,150.5,282.5)"/><rect x="145" y="288" width="11" height="11" transform="rotate(0,150.5,293.5)"/><rect x="145" y="299" width="11" height="11" transform="rotate(0,150.5,304.5)"/><rect x="145" y="321" width="11" height="11" transform="rotate(0,150.5,326.5)"/><rect x="145" y="332" width="11" height="11" transform="rotate(0,150.5,337.5)"/><rect x="145" y="354" width="11" height="11" transform="rotate(0,150.5,359.5)"/><rect x="145" y="409" width="11" height="11" transform="rotate(0,150.5,414.5)"/><rect x="145" y="420" width="11" height="11" transform="rotate(0,150.5,425.5)"/><rect x="145" y="442" width="11" height="11" transform="rotate(0,150.5,447.5)"/><rect x="145" y="464" width="11" height="11" transform="rotate(0,150.5,469.5)"/><rect x="156" y="24" width="11" height="11" transform="rotate(0,161.5,29.5)"/><rect x="156" y="57" width="11" height="11" transform="rotate(0,161.5,62.5)"/><rect x="156" y="68" width="11" height="11" transform="rotate(0,161.5,73.5)"/><rect x="156" y="79" width="11" height="11" transform="rotate(0,161.5,84.5)"/><rect x="156" y="90" width="11" height="11" transform="rotate(0,161.5,95.5)"/><rect x="156" y="112" width="11" height="11" transform="rotate(0,161.5,117.5)"/><rect x="156" y="123" width="11" height="11" transform="rotate(0,161.5,128.5)"/><rect x="156" y="134" width="11" height="11" transform="rotate(0,161.5,139.5)"/><rect x="156" y="167" width="11" height="11" transform="rotate(0,161.5,172.5)"/><rect x="156" y="200" width="11" height="11" transform="rotate(0,161.5,205.5)"/><rect x="156" y="222" width="11" height="11" transform="rotate(0,161.5,227.5)"/><rect x="156" y="233" width="11" height="11" transform="rotate(0,161.5,238.5)"/><rect x="156" y="244" width="11" height="11" transform="rotate(0,161.5,249.5)"/><rect x="156" y="299" width="11" height="11" transform="rotate(0,161.5,304.5)"/><rect x="156" y="321" width="11" height="11" transform="rotate(0,161.5,326.5)"/><rect x="156" y="332" width="11" height="11" transform="rotate(0,161.5,337.5)"/><rect x="156" y="343" width="11" height="11" transform="rotate(0,161.5,348.5)"/><rect x="156" y="365" width="11" height="11" transform="rotate(0,161.5,370.5)"/><rect x="156" y="376" width="11" height="11" transform="rotate(0,161.5,381.5)"/><rect x="156" y="387" width="11" height="11" transform="rotate(0,161.5,392.5)"/><rect x="156" y="398" width="11" height="11" transform="rotate(0,161.5,403.5)"/><rect x="156" y="409" width="11" height="11" transform="rotate(0,161.5,414.5)"/><rect x="156" y="431" width="11" height="11" transform="rotate(0,161.5,436.5)"/><rect x="156" y="453" width="11" height="11" transform="rotate(0,161.5,458.5)"/><rect x="156" y="464" width="11" height="11" transform="rotate(0,161.5,469.5)"/><rect x="167" y="57" width="11" height="11" transform="rotate(0,172.5,62.5)"/><rect x="167" y="68" width="11" height="11" transform="rotate(0,172.5,73.5)"/><rect x="167" y="79" width="11" height="11" transform="rotate(0,172.5,84.5)"/><rect x="167" y="101" width="11" height="11" transform="rotate(0,172.5,106.5)"/><rect x="167" y="112" width="11" height="11" transform="rotate(0,172.5,117.5)"/><rect x="167" y="123" width="11" height="11" transform="rotate(0,172.5,128.5)"/><rect x="167" y="134" width="11" height="11" transform="rotate(0,172.5,139.5)"/><rect x="167" y="156" width="11" height="11" transform="rotate(0,172.5,161.5)"/><rect x="167" y="167" width="11" height="11" transform="rotate(0,172.5,172.5)"/><rect x="167" y="189" width="11" height="11" transform="rotate(0,172.5,194.5)"/><rect x="167" y="211" width="11" height="11" transform="rotate(0,172.5,216.5)"/><rect x="167" y="233" width="11" height="11" transform="rotate(0,172.5,238.5)"/><rect x="167" y="244" width="11" height="11" transform="rotate(0,172.5,249.5)"/><rect x="167" y="255" width="11" height="11" transform="rotate(0,172.5,260.5)"/><rect x="167" y="277" width="11" height="11" transform="rotate(0,172.5,282.5)"/><rect x="167" y="310" width="11" height="11" transform="rotate(0,172.5,315.5)"/><rect x="167" y="321" width="11" height="11" transform="rotate(0,172.5,326.5)"/><rect x="167" y="431" width="11" height="11" transform="rotate(0,172.5,436.5)"/><rect x="167" y="442" width="11" height="11" transform="rotate(0,172.5,447.5)"/><rect x="178" y="35" width="11" height="11" transform="rotate(0,183.5,40.5)"/><rect x="178" y="46" width="11" height="11" transform="rotate(0,183.5,51.5)"/><rect x="178" y="79" width="11" height="11" transform="rotate(0,183.5,84.5)"/><rect x="178" y="90" width="11" height="11" transform="rotate(0,183.5,95.5)"/><rect x="178" y="134" width="11" height="11" transform="rotate(0,183.5,139.5)"/><rect x="178" y="145" width="11" height="11" transform="rotate(0,183.5,150.5)"/><rect x="178" y="178" width="11" height="11" transform="rotate(0,183.5,183.5)"/><rect x="178" y="189" width="11" height="11" transform="rotate(0,183.5,194.5)"/><rect x="178" y="200" width="11" height="11" transform="rotate(0,183.5,205.5)"/><rect x="178" y="222" width="11" height="11" transform="rotate(0,183.5,227.5)"/><rect x="178" y="233" width="11" height="11" transform="rotate(0,183.5,238.5)"/><rect x="178" y="244" width="11" height="11" transform="rotate(0,183.5,249.5)"/><rect x="178" y="266" width="11" height="11" transform="rotate(0,183.5,271.5)"/><rect x="178" y="277" width="11" height="11" transform="rotate(0,183.5,282.5)"/><rect x="178" y="299" width="11" height="11" transform="rotate(0,183.5,304.5)"/><rect x="178" y="321" width="11" height="11" transform="rotate(0,183.5,326.5)"/><rect x="178" y="332" width="11" height="11" transform="rotate(0,183.5,337.5)"/><rect x="178" y="343" width="11" height="11" transform="rotate(0,183.5,348.5)"/><rect x="178" y="354" width="11" height="11" transform="rotate(0,183.5,359.5)"/><rect x="178" y="376" width="11" height="11" transform="rotate(0,183.5,381.5)"/><rect x="178" y="398" width="11" height="11" transform="rotate(0,183.5,403.5)"/><rect x="178" y="420" width="11" height="11" transform="rotate(0,183.5,425.5)"/><rect x="178" y="431" width="11" height="11" transform="rotate(0,183.5,436.5)"/><rect x="178" y="442" width="11" height="11" transform="rotate(0,183.5,447.5)"/><rect x="178" y="453" width="11" height="11" transform="rotate(0,183.5,458.5)"/><rect x="178" y="464" width="11" height="11" transform="rotate(0,183.5,469.5)"/><rect x="189" y="24" width="11" height="11" transform="rotate(0,194.5,29.5)"/><rect x="189" y="35" width="11" height="11" transform="rotate(0,194.5,40.5)"/><rect x="189" y="79" width="11" height="11" transform="rotate(0,194.5,84.5)"/><rect x="189" y="101" width="11" height="11" transform="rotate(0,194.5,106.5)"/><rect x="189" y="134" width="11" height="11" transform="rotate(0,194.5,139.5)"/><rect x="189" y="178" width="11" height="11" transform="rotate(0,194.5,183.5)"/><rect x="189" y="222" width="11" height="11" transform="rotate(0,194.5,227.5)"/><rect x="189" y="244" width="11" height="11" transform="rotate(0,194.5,249.5)"/><rect x="189" y="255" width="11" height="11" transform="rotate(0,194.5,260.5)"/><rect x="189" y="266" width="11" height="11" transform="rotate(0,194.5,271.5)"/><rect x="189" y="277" width="11" height="11" transform="rotate(0,194.5,282.5)"/><rect x="189" y="299" width="11" height="11" transform="rotate(0,194.5,304.5)"/><rect x="189" y="332" width="11" height="11" transform="rotate(0,194.5,337.5)"/><rect x="189" y="343" width="11" height="11" transform="rotate(0,194.5,348.5)"/><rect x="189" y="354" width="11" height="11" transform="rotate(0,194.5,359.5)"/><rect x="189" y="365" width="11" height="11" transform="rotate(0,194.5,370.5)"/><rect x="189" y="398" width="11" height="11" transform="rotate(0,194.5,403.5)"/><rect x="200" y="35" width="11" height="11" transform="rotate(0,205.5,40.5)"/><rect x="200" y="57" width="11" height="11" transform="rotate(0,205.5,62.5)"/><rect x="200" y="79" width="11" height="11" transform="rotate(0,205.5,84.5)"/><rect x="200" y="90" width="11" height="11" transform="rotate(0,205.5,95.5)"/><rect x="200" y="101" width="11" height="11" transform="rotate(0,205.5,106.5)"/><rect x="200" y="145" width="11" height="11" transform="rotate(0,205.5,150.5)"/><rect x="200" y="156" width="11" height="11" transform="rotate(0,205.5,161.5)"/><rect x="200" y="167" width="11" height="11" transform="rotate(0,205.5,172.5)"/><rect x="200" y="200" width="11" height="11" transform="rotate(0,205.5,205.5)"/><rect x="200" y="222" width="11" height="11" transform="rotate(0,205.5,227.5)"/><rect x="200" y="233" width="11" height="11" transform="rotate(0,205.5,238.5)"/><rect x="200" y="244" width="11" height="11" transform="rotate(0,205.5,249.5)"/><rect x="200" y="255" width="11" height="11" transform="rotate(0,205.5,260.5)"/><rect x="200" y="266" width="11" height="11" transform="rotate(0,205.5,271.5)"/><rect x="200" y="288" width="11" height="11" transform="rotate(0,205.5,293.5)"/><rect x="200" y="310" width="11" height="11" transform="rotate(0,205.5,315.5)"/><rect x="200" y="321" width="11" height="11" transform="rotate(0,205.5,326.5)"/><rect x="200" y="332" width="11" height="11" transform="rotate(0,205.5,337.5)"/><rect x="200" y="343" width="11" height="11" transform="rotate(0,205.5,348.5)"/><rect x="200" y="365" width="11" height="11" transform="rotate(0,205.5,370.5)"/><rect x="200" y="376" width="11" height="11" transform="rotate(0,205.5,381.5)"/><rect x="200" y="409" width="11" height="11" transform="rotate(0,205.5,414.5)"/><rect x="200" y="431" width="11" height="11" transform="rotate(0,205.5,436.5)"/><rect x="211" y="57" width="11" height="11" transform="rotate(0,216.5,62.5)"/><rect x="211" y="112" width="11" height="11" transform="rotate(0,216.5,117.5)"/><rect x="211" y="134" width="11" height="11" transform="rotate(0,216.5,139.5)"/><rect x="211" y="145" width="11" height="11" transform="rotate(0,216.5,150.5)"/><rect x="211" y="156" width="11" height="11" transform="rotate(0,216.5,161.5)"/><rect x="211" y="189" width="11" height="11" transform="rotate(0,216.5,194.5)"/><rect x="211" y="244" width="11" height="11" transform="rotate(0,216.5,249.5)"/><rect x="211" y="255" width="11" height="11" transform="rotate(0,216.5,260.5)"/><rect x="211" y="277" width="11" height="11" transform="rotate(0,216.5,282.5)"/><rect x="211" y="288" width="11" height="11" transform="rotate(0,216.5,293.5)"/><rect x="211" y="354" width="11" height="11" transform="rotate(0,216.5,359.5)"/><rect x="211" y="398" width="11" height="11" transform="rotate(0,216.5,403.5)"/><rect x="211" y="409" width="11" height="11" transform="rotate(0,216.5,414.5)"/><rect x="211" y="431" width="11" height="11" transform="rotate(0,216.5,436.5)"/><rect x="211" y="442" width="11" height="11" transform="rotate(0,216.5,447.5)"/><rect x="211" y="453" width="11" height="11" transform="rotate(0,216.5,458.5)"/><rect x="211" y="464" width="11" height="11" transform="rotate(0,216.5,469.5)"/><rect x="222" y="24" width="11" height="11" transform="rotate(0,227.5,29.5)"/><rect x="222" y="35" width="11" height="11" transform="rotate(0,227.5,40.5)"/><rect x="222" y="46" width="11" height="11" transform="rotate(0,227.5,51.5)"/><rect x="222" y="57" width="11" height="11" transform="rotate(0,227.5,62.5)"/><rect x="222" y="90" width="11" height="11" transform="rotate(0,227.5,95.5)"/><rect x="222" y="112" width="11" height="11" transform="rotate(0,227.5,117.5)"/><rect x="222" y="134" width="11" height="11" transform="rotate(0,227.5,139.5)"/><rect x="222" y="156" width="11" height="11" transform="rotate(0,227.5,161.5)"/><rect x="222" y="167" width="11" height="11" transform="rotate(0,227.5,172.5)"/><rect x="222" y="178" width="11" height="11" transform="rotate(0,227.5,183.5)"/><rect x="222" y="211" width="11" height="11" transform="rotate(0,227.5,216.5)"/><rect x="222" y="233" width="11" height="11" transform="rotate(0,227.5,238.5)"/><rect x="222" y="244" width="11" height="11" transform="rotate(0,227.5,249.5)"/><rect x="222" y="266" width="11" height="11" transform="rotate(0,227.5,271.5)"/><rect x="222" y="299" width="11" height="11" transform="rotate(0,227.5,304.5)"/><rect x="222" y="332" width="11" height="11" transform="rotate(0,227.5,337.5)"/><rect x="222" y="354" width="11" height="11" transform="rotate(0,227.5,359.5)"/><rect x="222" y="387" width="11" height="11" transform="rotate(0,227.5,392.5)"/><rect x="222" y="398" width="11" height="11" transform="rotate(0,227.5,403.5)"/><rect x="222" y="420" width="11" height="11" transform="rotate(0,227.5,425.5)"/><rect x="222" y="431" width="11" height="11" transform="rotate(0,227.5,436.5)"/><rect x="222" y="453" width="11" height="11" transform="rotate(0,227.5,458.5)"/><rect x="222" y="464" width="11" height="11" transform="rotate(0,227.5,469.5)"/><rect x="233" y="24" width="11" height="11" transform="rotate(0,238.5,29.5)"/><rect x="233" y="68" width="11" height="11" transform="rotate(0,238.5,73.5)"/><rect x="233" y="112" width="11" height="11" transform="rotate(0,238.5,117.5)"/><rect x="233" y="134" width="11" height="11" transform="rotate(0,238.5,139.5)"/><rect x="233" y="156" width="11" height="11" transform="rotate(0,238.5,161.5)"/><rect x="233" y="167" width="11" height="11" transform="rotate(0,238.5,172.5)"/><rect x="233" y="178" width="11" height="11" transform="rotate(0,238.5,183.5)"/><rect x="233" y="189" width="11" height="11" transform="rotate(0,238.5,194.5)"/><rect x="233" y="200" width="11" height="11" transform="rotate(0,238.5,205.5)"/><rect x="233" y="222" width="11" height="11" transform="rotate(0,238.5,227.5)"/><rect x="233" y="266" width="11" height="11" transform="rotate(0,238.5,271.5)"/><rect x="233" y="277" width="11" height="11" transform="rotate(0,238.5,282.5)"/><rect x="233" y="299" width="11" height="11" transform="rotate(0,238.5,304.5)"/><rect x="233" y="332" width="11" height="11" transform="rotate(0,238.5,337.5)"/><rect x="233" y="343" width="11" height="11" transform="rotate(0,238.5,348.5)"/><rect x="233" y="354" width="11" height="11" transform="rotate(0,238.5,359.5)"/><rect x="233" y="376" width="11" height="11" transform="rotate(0,238.5,381.5)"/><rect x="233" y="387" width="11" height="11" transform="rotate(0,238.5,392.5)"/><rect x="233" y="409" width="11" height="11" transform="rotate(0,238.5,414.5)"/><rect x="233" y="431" width="11" height="11" transform="rotate(0,238.5,436.5)"/><rect x="244" y="35" width="11" height="11" transform="rotate(0,249.5,40.5)"/><rect x="244" y="79" width="11" height="11" transform="rotate(0,249.5,84.5)"/><rect x="244" y="90" width="11" height="11" transform="rotate(0,249.5,95.5)"/><rect x="244" y="156" width="11" height="11" transform="rotate(0,249.5,161.5)"/><rect x="244" y="167" width="11" height="11" transform="rotate(0,249.5,172.5)"/><rect x="244" y="189" width="11" height="11" transform="rotate(0,249.5,194.5)"/><rect x="244" y="211" width="11" height="11" transform="rotate(0,249.5,216.5)"/><rect x="244" y="222" width="11" height="11" transform="rotate(0,249.5,227.5)"/><rect x="244" y="233" width="11" height="11" transform="rotate(0,249.5,238.5)"/><rect x="244" y="244" width="11" height="11" transform="rotate(0,249.5,249.5)"/><rect x="244" y="288" width="11" height="11" transform="rotate(0,249.5,293.5)"/><rect x="244" y="310" width="11" height="11" transform="rotate(0,249.5,315.5)"/><rect x="244" y="332" width="11" height="11" transform="rotate(0,249.5,337.5)"/><rect x="244" y="343" width="11" height="11" transform="rotate(0,249.5,348.5)"/><rect x="244" y="354" width="11" height="11" transform="rotate(0,249.5,359.5)"/><rect x="244" y="365" width="11" height="11" transform="rotate(0,249.5,370.5)"/><rect x="244" y="376" width="11" height="11" transform="rotate(0,249.5,381.5)"/><rect x="244" y="387" width="11" height="11" transform="rotate(0,249.5,392.5)"/><rect x="244" y="398" width="11" height="11" transform="rotate(0,249.5,403.5)"/><rect x="244" y="409" width="11" height="11" transform="rotate(0,249.5,414.5)"/><rect x="244" y="442" width="11" height="11" transform="rotate(0,249.5,447.5)"/><rect x="244" y="464" width="11" height="11" transform="rotate(0,249.5,469.5)"/><rect x="255" y="46" width="11" height="11" transform="rotate(0,260.5,51.5)"/><rect x="255" y="68" width="11" height="11" transform="rotate(0,260.5,73.5)"/><rect x="255" y="79" width="11" height="11" transform="rotate(0,260.5,84.5)"/><rect x="255" y="101" width="11" height="11" transform="rotate(0,260.5,106.5)"/><rect x="255" y="112" width="11" height="11" transform="rotate(0,260.5,117.5)"/><rect x="255" y="156" width="11" height="11" transform="rotate(0,260.5,161.5)"/><rect x="255" y="167" width="11" height="11" transform="rotate(0,260.5,172.5)"/><rect x="255" y="189" width="11" height="11" transform="rotate(0,260.5,194.5)"/><rect x="255" y="222" width="11" height="11" transform="rotate(0,260.5,227.5)"/><rect x="255" y="233" width="11" height="11" transform="rotate(0,260.5,238.5)"/><rect x="255" y="244" width="11" height="11" transform="rotate(0,260.5,249.5)"/><rect x="255" y="255" width="11" height="11" transform="rotate(0,260.5,260.5)"/><rect x="255" y="332" width="11" height="11" transform="rotate(0,260.5,337.5)"/><rect x="255" y="343" width="11" height="11" transform="rotate(0,260.5,348.5)"/><rect x="255" y="354" width="11" height="11" transform="rotate(0,260.5,359.5)"/><rect x="255" y="376" width="11" height="11" transform="rotate(0,260.5,381.5)"/><rect x="255" y="387" width="11" height="11" transform="rotate(0,260.5,392.5)"/><rect x="255" y="398" width="11" height="11" transform="rotate(0,260.5,403.5)"/><rect x="255" y="431" width="11" height="11" transform="rotate(0,260.5,436.5)"/><rect x="255" y="442" width="11" height="11" transform="rotate(0,260.5,447.5)"/><rect x="255" y="453" width="11" height="11" transform="rotate(0,260.5,458.5)"/><rect x="255" y="464" width="11" height="11" transform="rotate(0,260.5,469.5)"/><rect x="266" y="24" width="11" height="11" transform="rotate(0,271.5,29.5)"/><rect x="266" y="35" width="11" height="11" transform="rotate(0,271.5,40.5)"/><rect x="266" y="68" width="11" height="11" transform="rotate(0,271.5,73.5)"/><rect x="266" y="90" width="11" height="11" transform="rotate(0,271.5,95.5)"/><rect x="266" y="211" width="11" height="11" transform="rotate(0,271.5,216.5)"/><rect x="266" y="233" width="11" height="11" transform="rotate(0,271.5,238.5)"/><rect x="266" y="255" width="11" height="11" transform="rotate(0,271.5,260.5)"/><rect x="266" y="310" width="11" height="11" transform="rotate(0,271.5,315.5)"/><rect x="266" y="332" width="11" height="11" transform="rotate(0,271.5,337.5)"/><rect x="266" y="343" width="11" height="11" transform="rotate(0,271.5,348.5)"/><rect x="266" y="365" width="11" height="11" transform="rotate(0,271.5,370.5)"/><rect x="266" y="376" width="11" height="11" transform="rotate(0,271.5,381.5)"/><rect x="266" y="409" width="11" height="11" transform="rotate(0,271.5,414.5)"/><rect x="266" y="442" width="11" height="11" transform="rotate(0,271.5,447.5)"/><rect x="266" y="453" width="11" height="11" transform="rotate(0,271.5,458.5)"/><rect x="277" y="57" width="11" height="11" transform="rotate(0,282.5,62.5)"/><rect x="277" y="112" width="11" height="11" transform="rotate(0,282.5,117.5)"/><rect x="277" y="145" width="11" height="11" transform="rotate(0,282.5,150.5)"/><rect x="277" y="178" width="11" height="11" transform="rotate(0,282.5,183.5)"/><rect x="277" y="222" width="11" height="11" transform="rotate(0,282.5,227.5)"/><rect x="277" y="233" width="11" height="11" transform="rotate(0,282.5,238.5)"/><rect x="277" y="255" width="11" height="11" transform="rotate(0,282.5,260.5)"/><rect x="277" y="266" width="11" height="11" transform="rotate(0,282.5,271.5)"/><rect x="277" y="288" width="11" height="11" transform="rotate(0,282.5,293.5)"/><rect x="277" y="299" width="11" height="11" transform="rotate(0,282.5,304.5)"/><rect x="277" y="321" width="11" height="11" transform="rotate(0,282.5,326.5)"/><rect x="277" y="332" width="11" height="11" transform="rotate(0,282.5,337.5)"/><rect x="277" y="354" width="11" height="11" transform="rotate(0,282.5,359.5)"/><rect x="277" y="398" width="11" height="11" transform="rotate(0,282.5,403.5)"/><rect x="277" y="420" width="11" height="11" transform="rotate(0,282.5,425.5)"/><rect x="277" y="442" width="11" height="11" transform="rotate(0,282.5,447.5)"/><rect x="277" y="453" width="11" height="11" transform="rotate(0,282.5,458.5)"/><rect x="288" y="24" width="11" height="11" transform="rotate(0,293.5,29.5)"/><rect x="288" y="35" width="11" height="11" transform="rotate(0,293.5,40.5)"/><rect x="288" y="46" width="11" height="11" transform="rotate(0,293.5,51.5)"/><rect x="288" y="57" width="11" height="11" transform="rotate(0,293.5,62.5)"/><rect x="288" y="90" width="11" height="11" transform="rotate(0,293.5,95.5)"/><rect x="288" y="123" width="11" height="11" transform="rotate(0,293.5,128.5)"/><rect x="288" y="134" width="11" height="11" transform="rotate(0,293.5,139.5)"/><rect x="288" y="145" width="11" height="11" transform="rotate(0,293.5,150.5)"/><rect x="288" y="167" width="11" height="11" transform="rotate(0,293.5,172.5)"/><rect x="288" y="178" width="11" height="11" transform="rotate(0,293.5,183.5)"/><rect x="288" y="211" width="11" height="11" transform="rotate(0,293.5,216.5)"/><rect x="288" y="233" width="11" height="11" transform="rotate(0,293.5,238.5)"/><rect x="288" y="244" width="11" height="11" transform="rotate(0,293.5,249.5)"/><rect x="288" y="266" width="11" height="11" transform="rotate(0,293.5,271.5)"/><rect x="288" y="288" width="11" height="11" transform="rotate(0,293.5,293.5)"/><rect x="288" y="299" width="11" height="11" transform="rotate(0,293.5,304.5)"/><rect x="288" y="332" width="11" height="11" transform="rotate(0,293.5,337.5)"/><rect x="288" y="343" width="11" height="11" transform="rotate(0,293.5,348.5)"/><rect x="288" y="365" width="11" height="11" transform="rotate(0,293.5,370.5)"/><rect x="288" y="376" width="11" height="11" transform="rotate(0,293.5,381.5)"/><rect x="288" y="387" width="11" height="11" transform="rotate(0,293.5,392.5)"/><rect x="288" y="398" width="11" height="11" transform="rotate(0,293.5,403.5)"/><rect x="288" y="464" width="11" height="11" transform="rotate(0,293.5,469.5)"/><rect x="299" y="24" width="11" height="11" transform="rotate(0,304.5,29.5)"/><rect x="299" y="46" width="11" height="11" transform="rotate(0,304.5,51.5)"/><rect x="299" y="68" width="11" height="11" transform="rotate(0,304.5,73.5)"/><rect x="299" y="156" width="11" height="11" transform="rotate(0,304.5,161.5)"/><rect x="299" y="200" width="11" height="11" transform="rotate(0,304.5,205.5)"/><rect x="299" y="211" width="11" height="11" transform="rotate(0,304.5,216.5)"/><rect x="299" y="222" width="11" height="11" transform="rotate(0,304.5,227.5)"/><rect x="299" y="233" width="11" height="11" transform="rotate(0,304.5,238.5)"/><rect x="299" y="354" width="11" height="11" transform="rotate(0,304.5,359.5)"/><rect x="299" y="365" width="11" height="11" transform="rotate(0,304.5,370.5)"/><rect x="299" y="409" width="11" height="11" transform="rotate(0,304.5,414.5)"/><rect x="299" y="431" width="11" height="11" transform="rotate(0,304.5,436.5)"/><rect x="299" y="453" width="11" height="11" transform="rotate(0,304.5,458.5)"/><rect x="310" y="35" width="11" height="11" transform="rotate(0,315.5,40.5)"/><rect x="310" y="46" width="11" height="11" transform="rotate(0,315.5,51.5)"/><rect x="310" y="57" width="11" height="11" transform="rotate(0,315.5,62.5)"/><rect x="310" y="90" width="11" height="11" transform="rotate(0,315.5,95.5)"/><rect x="310" y="101" width="11" height="11" transform="rotate(0,315.5,106.5)"/><rect x="310" y="112" width="11" height="11" transform="rotate(0,315.5,117.5)"/><rect x="310" y="123" width="11" height="11" transform="rotate(0,315.5,128.5)"/><rect x="310" y="156" width="11" height="11" transform="rotate(0,315.5,161.5)"/><rect x="310" y="167" width="11" height="11" transform="rotate(0,315.5,172.5)"/><rect x="310" y="178" width="11" height="11" transform="rotate(0,315.5,183.5)"/><rect x="310" y="189" width="11" height="11" transform="rotate(0,315.5,194.5)"/><rect x="310" y="266" width="11" height="11" transform="rotate(0,315.5,271.5)"/><rect x="310" y="277" width="11" height="11" transform="rotate(0,315.5,282.5)"/><rect x="310" y="288" width="11" height="11" transform="rotate(0,315.5,293.5)"/><rect x="310" y="310" width="11" height="11" transform="rotate(0,315.5,315.5)"/><rect x="310" y="332" width="11" height="11" transform="rotate(0,315.5,337.5)"/><rect x="310" y="376" width="11" height="11" transform="rotate(0,315.5,381.5)"/><rect x="310" y="398" width="11" height="11" transform="rotate(0,315.5,403.5)"/><rect x="310" y="420" width="11" height="11" transform="rotate(0,315.5,425.5)"/><rect x="310" y="453" width="11" height="11" transform="rotate(0,315.5,458.5)"/><rect x="310" y="464" width="11" height="11" transform="rotate(0,315.5,469.5)"/><rect x="321" y="46" width="11" height="11" transform="rotate(0,326.5,51.5)"/><rect x="321" y="79" width="11" height="11" transform="rotate(0,326.5,84.5)"/><rect x="321" y="101" width="11" height="11" transform="rotate(0,326.5,106.5)"/><rect x="321" y="134" width="11" height="11" transform="rotate(0,326.5,139.5)"/><rect x="321" y="156" width="11" height="11" transform="rotate(0,326.5,161.5)"/><rect x="321" y="167" width="11" height="11" transform="rotate(0,326.5,172.5)"/><rect x="321" y="189" width="11" height="11" transform="rotate(0,326.5,194.5)"/><rect x="321" y="200" width="11" height="11" transform="rotate(0,326.5,205.5)"/><rect x="321" y="244" width="11" height="11" transform="rotate(0,326.5,249.5)"/><rect x="321" y="255" width="11" height="11" transform="rotate(0,326.5,260.5)"/><rect x="321" y="277" width="11" height="11" transform="rotate(0,326.5,282.5)"/><rect x="321" y="288" width="11" height="11" transform="rotate(0,326.5,293.5)"/><rect x="321" y="299" width="11" height="11" transform="rotate(0,326.5,304.5)"/><rect x="321" y="310" width="11" height="11" transform="rotate(0,326.5,315.5)"/><rect x="321" y="332" width="11" height="11" transform="rotate(0,326.5,337.5)"/><rect x="321" y="343" width="11" height="11" transform="rotate(0,326.5,348.5)"/><rect x="321" y="354" width="11" height="11" transform="rotate(0,326.5,359.5)"/><rect x="321" y="376" width="11" height="11" transform="rotate(0,326.5,381.5)"/><rect x="321" y="387" width="11" height="11" transform="rotate(0,326.5,392.5)"/><rect x="321" y="398" width="11" height="11" transform="rotate(0,326.5,403.5)"/><rect x="321" y="409" width="11" height="11" transform="rotate(0,326.5,414.5)"/><rect x="321" y="464" width="11" height="11" transform="rotate(0,326.5,469.5)"/><rect x="332" y="24" width="11" height="11" transform="rotate(0,337.5,29.5)"/><rect x="332" y="35" width="11" height="11" transform="rotate(0,337.5,40.5)"/><rect x="332" y="57" width="11" height="11" transform="rotate(0,337.5,62.5)"/><rect x="332" y="79" width="11" height="11" transform="rotate(0,337.5,84.5)"/><rect x="332" y="90" width="11" height="11" transform="rotate(0,337.5,95.5)"/><rect x="332" y="101" width="11" height="11" transform="rotate(0,337.5,106.5)"/><rect x="332" y="112" width="11" height="11" transform="rotate(0,337.5,117.5)"/><rect x="332" y="123" width="11" height="11" transform="rotate(0,337.5,128.5)"/><rect x="332" y="134" width="11" height="11" transform="rotate(0,337.5,139.5)"/><rect x="332" y="156" width="11" height="11" transform="rotate(0,337.5,161.5)"/><rect x="332" y="167" width="11" height="11" transform="rotate(0,337.5,172.5)"/><rect x="332" y="178" width="11" height="11" transform="rotate(0,337.5,183.5)"/><rect x="332" y="222" width="11" height="11" transform="rotate(0,337.5,227.5)"/><rect x="332" y="266" width="11" height="11" transform="rotate(0,337.5,271.5)"/><rect x="332" y="288" width="11" height="11" transform="rotate(0,337.5,293.5)"/><rect x="332" y="321" width="11" height="11" transform="rotate(0,337.5,326.5)"/><rect x="332" y="332" width="11" height="11" transform="rotate(0,337.5,337.5)"/><rect x="332" y="343" width="11" height="11" transform="rotate(0,337.5,348.5)"/><rect x="332" y="376" width="11" height="11" transform="rotate(0,337.5,381.5)"/><rect x="332" y="387" width="11" height="11" transform="rotate(0,337.5,392.5)"/><rect x="332" y="453" width="11" height="11" transform="rotate(0,337.5,458.5)"/><rect x="332" y="464" width="11" height="11" transform="rotate(0,337.5,469.5)"/><rect x="343" y="46" width="11" height="11" transform="rotate(0,348.5,51.5)"/><rect x="343" y="68" width="11" height="11" transform="rotate(0,348.5,73.5)"/><rect x="343" y="79" width="11" height="11" transform="rotate(0,348.5,84.5)"/><rect x="343" y="101" width="11" height="11" transform="rotate(0,348.5,106.5)"/><rect x="343" y="112" width="11" height="11" transform="rotate(0,348.5,117.5)"/><rect x="343" y="123" width="11" height="11" transform="rotate(0,348.5,128.5)"/><rect x="343" y="145" width="11" height="11" transform="rotate(0,348.5,150.5)"/><rect x="343" y="156" width="11" height="11" transform="rotate(0,348.5,161.5)"/><rect x="343" y="167" width="11" height="11" transform="rotate(0,348.5,172.5)"/><rect x="343" y="178" width="11" height="11" transform="rotate(0,348.5,183.5)"/><rect x="343" y="233" width="11" height="11" transform="rotate(0,348.5,238.5)"/><rect x="343" y="244" width="11" height="11" transform="rotate(0,348.5,249.5)"/><rect x="343" y="255" width="11" height="11" transform="rotate(0,348.5,260.5)"/><rect x="343" y="266" width="11" height="11" transform="rotate(0,348.5,271.5)"/><rect x="343" y="288" width="11" height="11" transform="rotate(0,348.5,293.5)"/><rect x="343" y="299" width="11" height="11" transform="rotate(0,348.5,304.5)"/><rect x="343" y="321" width="11" height="11" transform="rotate(0,348.5,326.5)"/><rect x="343" y="354" width="11" height="11" transform="rotate(0,348.5,359.5)"/><rect x="343" y="398" width="11" height="11" transform="rotate(0,348.5,403.5)"/><rect x="343" y="409" width="11" height="11" transform="rotate(0,348.5,414.5)"/><rect x="343" y="453" width="11" height="11" transform="rotate(0,348.5,458.5)"/><rect x="343" y="464" width="11" height="11" transform="rotate(0,348.5,469.5)"/><rect x="354" y="24" width="11" height="11" transform="rotate(0,359.5,29.5)"/><rect x="354" y="90" width="11" height="11" transform="rotate(0,359.5,95.5)"/><rect x="354" y="101" width="11" height="11" transform="rotate(0,359.5,106.5)"/><rect x="354" y="134" width="11" height="11" transform="rotate(0,359.5,139.5)"/><rect x="354" y="156" width="11" height="11" transform="rotate(0,359.5,161.5)"/><rect x="354" y="178" width="11" height="11" transform="rotate(0,359.5,183.5)"/><rect x="354" y="200" width="11" height="11" transform="rotate(0,359.5,205.5)"/><rect x="354" y="211" width="11" height="11" transform="rotate(0,359.5,216.5)"/><rect x="354" y="222" width="11" height="11" transform="rotate(0,359.5,227.5)"/><rect x="354" y="233" width="11" height="11" transform="rotate(0,359.5,238.5)"/><rect x="354" y="266" width="11" height="11" transform="rotate(0,359.5,271.5)"/><rect x="354" y="277" width="11" height="11" transform="rotate(0,359.5,282.5)"/><rect x="354" y="288" width="11" height="11" transform="rotate(0,359.5,293.5)"/><rect x="354" y="299" width="11" height="11" transform="rotate(0,359.5,304.5)"/><rect x="354" y="376" width="11" height="11" transform="rotate(0,359.5,381.5)"/><rect x="354" y="409" width="11" height="11" transform="rotate(0,359.5,414.5)"/><rect x="354" y="431" width="11" height="11" transform="rotate(0,359.5,436.5)"/><rect x="354" y="442" width="11" height="11" transform="rotate(0,359.5,447.5)"/><rect x="354" y="453" width="11" height="11" transform="rotate(0,359.5,458.5)"/><rect x="354" y="464" width="11" height="11" transform="rotate(0,359.5,469.5)"/><rect x="365" y="57" width="11" height="11" transform="rotate(0,370.5,62.5)"/><rect x="365" y="79" width="11" height="11" transform="rotate(0,370.5,84.5)"/><rect x="365" y="101" width="11" height="11" transform="rotate(0,370.5,106.5)"/><rect x="365" y="112" width="11" height="11" transform="rotate(0,370.5,117.5)"/><rect x="365" y="123" width="11" height="11" transform="rotate(0,370.5,128.5)"/><rect x="365" y="134" width="11" height="11" transform="rotate(0,370.5,139.5)"/><rect x="365" y="156" width="11" height="11" transform="rotate(0,370.5,161.5)"/><rect x="365" y="222" width="11" height="11" transform="rotate(0,370.5,227.5)"/><rect x="365" y="266" width="11" height="11" transform="rotate(0,370.5,271.5)"/><rect x="365" y="288" width="11" height="11" transform="rotate(0,370.5,293.5)"/><rect x="365" y="321" width="11" height="11" transform="rotate(0,370.5,326.5)"/><rect x="365" y="332" width="11" height="11" transform="rotate(0,370.5,337.5)"/><rect x="365" y="343" width="11" height="11" transform="rotate(0,370.5,348.5)"/><rect x="365" y="376" width="11" height="11" transform="rotate(0,370.5,381.5)"/><rect x="365" y="387" width="11" height="11" transform="rotate(0,370.5,392.5)"/><rect x="365" y="420" width="11" height="11" transform="rotate(0,370.5,425.5)"/><rect x="365" y="464" width="11" height="11" transform="rotate(0,370.5,469.5)"/><rect x="376" y="24" width="11" height="11" transform="rotate(0,381.5,29.5)"/><rect x="376" y="46" width="11" height="11" transform="rotate(0,381.5,51.5)"/><rect x="376" y="57" width="11" height="11" transform="rotate(0,381.5,62.5)"/><rect x="376" y="68" width="11" height="11" transform="rotate(0,381.5,73.5)"/><rect x="376" y="90" width="11" height="11" transform="rotate(0,381.5,95.5)"/><rect x="376" y="145" width="11" height="11" transform="rotate(0,381.5,150.5)"/><rect x="376" y="156" width="11" height="11" transform="rotate(0,381.5,161.5)"/><rect x="376" y="189" width="11" height="11" transform="rotate(0,381.5,194.5)"/><rect x="376" y="200" width="11" height="11" transform="rotate(0,381.5,205.5)"/><rect x="376" y="222" width="11" height="11" transform="rotate(0,381.5,227.5)"/><rect x="376" y="266" width="11" height="11" transform="rotate(0,381.5,271.5)"/><rect x="376" y="299" width="11" height="11" transform="rotate(0,381.5,304.5)"/><rect x="376" y="354" width="11" height="11" transform="rotate(0,381.5,359.5)"/><rect x="376" y="376" width="11" height="11" transform="rotate(0,381.5,381.5)"/><rect x="376" y="387" width="11" height="11" transform="rotate(0,381.5,392.5)"/><rect x="376" y="398" width="11" height="11" transform="rotate(0,381.5,403.5)"/><rect x="376" y="409" width="11" height="11" transform="rotate(0,381.5,414.5)"/><rect x="376" y="420" width="11" height="11" transform="rotate(0,381.5,425.5)"/><rect x="376" y="442" width="11" height="11" transform="rotate(0,381.5,447.5)"/><rect x="376" y="453" width="11" height="11" transform="rotate(0,381.5,458.5)"/><rect x="387" y="112" width="11" height="11" transform="rotate(0,392.5,117.5)"/><rect x="387" y="145" width="11" height="11" transform="rotate(0,392.5,150.5)"/><rect x="387" y="178" width="11" height="11" transform="rotate(0,392.5,183.5)"/><rect x="387" y="211" width="11" height="11" transform="rotate(0,392.5,216.5)"/><rect x="387" y="222" width="11" height="11" transform="rotate(0,392.5,227.5)"/><rect x="387" y="233" width="11" height="11" transform="rotate(0,392.5,238.5)"/><rect x="387" y="255" width="11" height="11" transform="rotate(0,392.5,260.5)"/><rect x="387" y="288" width="11" height="11" transform="rotate(0,392.5,293.5)"/><rect x="387" y="299" width="11" height="11" transform="rotate(0,392.5,304.5)"/><rect x="387" y="365" width="11" height="11" transform="rotate(0,392.5,370.5)"/><rect x="387" y="376" width="11" height="11" transform="rotate(0,392.5,381.5)"/><rect x="387" y="420" width="11" height="11" transform="rotate(0,392.5,425.5)"/><rect x="387" y="431" width="11" height="11" transform="rotate(0,392.5,436.5)"/><rect x="387" y="442" width="11" height="11" transform="rotate(0,392.5,447.5)"/><rect x="387" y="453" width="11" height="11" transform="rotate(0,392.5,458.5)"/><rect x="387" y="464" width="11" height="11" transform="rotate(0,392.5,469.5)"/><rect x="398" y="112" width="11" height="11" transform="rotate(0,403.5,117.5)"/><rect x="398" y="178" width="11" height="11" transform="rotate(0,403.5,183.5)"/><rect x="398" y="189" width="11" height="11" transform="rotate(0,403.5,194.5)"/><rect x="398" y="299" width="11" height="11" transform="rotate(0,403.5,304.5)"/><rect x="398" y="310" width="11" height="11" transform="rotate(0,403.5,315.5)"/><rect x="398" y="332" width="11" height="11" transform="rotate(0,403.5,337.5)"/><rect x="398" y="343" width="11" height="11" transform="rotate(0,403.5,348.5)"/><rect x="398" y="376" width="11" height="11" transform="rotate(0,403.5,381.5)"/><rect x="398" y="398" width="11" height="11" transform="rotate(0,403.5,403.5)"/><rect x="398" y="420" width="11" height="11" transform="rotate(0,403.5,425.5)"/><rect x="398" y="442" width="11" height="11" transform="rotate(0,403.5,447.5)"/><rect x="398" y="453" width="11" height="11" transform="rotate(0,403.5,458.5)"/><rect x="409" y="112" width="11" height="11" transform="rotate(0,414.5,117.5)"/><rect x="409" y="145" width="11" height="11" transform="rotate(0,414.5,150.5)"/><rect x="409" y="178" width="11" height="11" transform="rotate(0,414.5,183.5)"/><rect x="409" y="211" width="11" height="11" transform="rotate(0,414.5,216.5)"/><rect x="409" y="222" width="11" height="11" transform="rotate(0,414.5,227.5)"/><rect x="409" y="266" width="11" height="11" transform="rotate(0,414.5,271.5)"/><rect x="409" y="288" width="11" height="11" transform="rotate(0,414.5,293.5)"/><rect x="409" y="299" width="11" height="11" transform="rotate(0,414.5,304.5)"/><rect x="409" y="321" width="11" height="11" transform="rotate(0,414.5,326.5)"/><rect x="409" y="332" width="11" height="11" transform="rotate(0,414.5,337.5)"/><rect x="409" y="343" width="11" height="11" transform="rotate(0,414.5,348.5)"/><rect x="409" y="376" width="11" height="11" transform="rotate(0,414.5,381.5)"/><rect x="409" y="420" width="11" height="11" transform="rotate(0,414.5,425.5)"/><rect x="409" y="442" width="11" height="11" transform="rotate(0,414.5,447.5)"/><rect x="409" y="453" width="11" height="11" transform="rotate(0,414.5,458.5)"/><rect x="409" y="464" width="11" height="11" transform="rotate(0,414.5,469.5)"/><rect x="420" y="134" width="11" height="11" transform="rotate(0,425.5,139.5)"/><rect x="420" y="145" width="11" height="11" transform="rotate(0,425.5,150.5)"/><rect x="420" y="156" width="11" height="11" transform="rotate(0,425.5,161.5)"/><rect x="420" y="167" width="11" height="11" transform="rotate(0,425.5,172.5)"/><rect x="420" y="178" width="11" height="11" transform="rotate(0,425.5,183.5)"/><rect x="420" y="189" width="11" height="11" transform="rotate(0,425.5,194.5)"/><rect x="420" y="200" width="11" height="11" transform="rotate(0,425.5,205.5)"/><rect x="420" y="222" width="11" height="11" transform="rotate(0,425.5,227.5)"/><rect x="420" y="233" width="11" height="11" transform="rotate(0,425.5,238.5)"/><rect x="420" y="244" width="11" height="11" transform="rotate(0,425.5,249.5)"/><rect x="420" y="255" width="11" height="11" transform="rotate(0,425.5,260.5)"/><rect x="420" y="277" width="11" height="11" transform="rotate(0,425.5,282.5)"/><rect x="420" y="288" width="11" height="11" transform="rotate(0,425.5,293.5)"/><rect x="420" y="310" width="11" height="11" transform="rotate(0,425.5,315.5)"/><rect x="420" y="321" width="11" height="11" transform="rotate(0,425.5,326.5)"/><rect x="420" y="332" width="11" height="11" transform="rotate(0,425.5,337.5)"/><rect x="420" y="376" width="11" height="11" transform="rotate(0,425.5,381.5)"/><rect x="420" y="387" width="11" height="11" transform="rotate(0,425.5,392.5)"/><rect x="420" y="398" width="11" height="11" transform="rotate(0,425.5,403.5)"/><rect x="420" y="409" width="11" height="11" transform="rotate(0,425.5,414.5)"/><rect x="420" y="420" width="11" height="11" transform="rotate(0,425.5,425.5)"/><rect x="420" y="453" width="11" height="11" transform="rotate(0,425.5,458.5)"/><rect x="431" y="112" width="11" height="11" transform="rotate(0,436.5,117.5)"/><rect x="431" y="123" width="11" height="11" transform="rotate(0,436.5,128.5)"/><rect x="431" y="134" width="11" height="11" transform="rotate(0,436.5,139.5)"/><rect x="431" y="156" width="11" height="11" transform="rotate(0,436.5,161.5)"/><rect x="431" y="167" width="11" height="11" transform="rotate(0,436.5,172.5)"/><rect x="431" y="200" width="11" height="11" transform="rotate(0,436.5,205.5)"/><rect x="431" y="211" width="11" height="11" transform="rotate(0,436.5,216.5)"/><rect x="431" y="233" width="11" height="11" transform="rotate(0,436.5,238.5)"/><rect x="431" y="255" width="11" height="11" transform="rotate(0,436.5,260.5)"/><rect x="431" y="266" width="11" height="11" transform="rotate(0,436.5,271.5)"/><rect x="431" y="288" width="11" height="11" transform="rotate(0,436.5,293.5)"/><rect x="431" y="310" width="11" height="11" transform="rotate(0,436.5,315.5)"/><rect x="431" y="343" width="11" height="11" transform="rotate(0,436.5,348.5)"/><rect x="431" y="365" width="11" height="11" transform="rotate(0,436.5,370.5)"/><rect x="431" y="387" width="11" height="11" transform="rotate(0,436.5,392.5)"/><rect x="431" y="398" width="11" height="11" transform="rotate(0,436.5,403.5)"/><rect x="431" y="420" width="11" height="11" transform="rotate(0,436.5,425.5)"/><rect x="431" y="453" width="11" height="11" transform="rotate(0,436.5,458.5)"/><rect x="431" y="464" width="11" height="11" transform="rotate(0,436.5,469.5)"/><rect x="442" y="123" width="11" height="11" transform="rotate(0,447.5,128.5)"/><rect x="442" y="134" width="11" height="11" transform="rotate(0,447.5,139.5)"/><rect x="442" y="156" width="11" height="11" transform="rotate(0,447.5,161.5)"/><rect x="442" y="178" width="11" height="11" transform="rotate(0,447.5,183.5)"/><rect x="442" y="189" width="11" height="11" transform="rotate(0,447.5,194.5)"/><rect x="442" y="200" width="11" height="11" transform="rotate(0,447.5,205.5)"/><rect x="442" y="233" width="11" height="11" transform="rotate(0,447.5,238.5)"/><rect x="442" y="266" width="11" height="11" transform="rotate(0,447.5,271.5)"/><rect x="442" y="277" width="11" height="11" transform="rotate(0,447.5,282.5)"/><rect x="442" y="310" width="11" height="11" transform="rotate(0,447.5,315.5)"/><rect x="442" y="332" width="11" height="11" transform="rotate(0,447.5,337.5)"/><rect x="442" y="365" width="11" height="11" transform="rotate(0,447.5,370.5)"/><rect x="442" y="420" width="11" height="11" transform="rotate(0,447.5,425.5)"/><rect x="442" y="431" width="11" height="11" transform="rotate(0,447.5,436.5)"/><rect x="442" y="453" width="11" height="11" transform="rotate(0,447.5,458.5)"/><rect x="442" y="464" width="11" height="11" transform="rotate(0,447.5,469.5)"/><rect x="453" y="112" width="11" height="11" transform="rotate(0,458.5,117.5)"/><rect x="453" y="123" width="11" height="11" transform="rotate(0,458.5,128.5)"/><rect x="453" y="145" width="11" height="11" transform="rotate(0,458.5,150.5)"/><rect x="453" y="167" width="11" height="11" transform="rotate(0,458.5,172.5)"/><rect x="453" y="178" width="11" height="11" transform="rotate(0,458.5,183.5)"/><rect x="453" y="211" width="11" height="11" transform="rotate(0,458.5,216.5)"/><rect x="453" y="222" width="11" height="11" transform="rotate(0,458.5,227.5)"/><rect x="453" y="233" width="11" height="11" transform="rotate(0,458.5,238.5)"/><rect x="453" y="244" width="11" height="11" transform="rotate(0,458.5,249.5)"/><rect x="453" y="255" width="11" height="11" transform="rotate(0,458.5,260.5)"/><rect x="453" y="266" width="11" height="11" transform="rotate(0,458.5,271.5)"/><rect x="453" y="299" width="11" height="11" transform="rotate(0,458.5,304.5)"/><rect x="453" y="310" width="11" height="11" transform="rotate(0,458.5,315.5)"/><rect x="453" y="321" width="11" height="11" transform="rotate(0,458.5,326.5)"/><rect x="453" y="343" width="11" height="11" transform="rotate(0,458.5,348.5)"/><rect x="453" y="354" width="11" height="11" transform="rotate(0,458.5,359.5)"/><rect x="453" y="365" width="11" height="11" transform="rotate(0,458.5,370.5)"/><rect x="453" y="376" width="11" height="11" transform="rotate(0,458.5,381.5)"/><rect x="453" y="409" width="11" height="11" transform="rotate(0,458.5,414.5)"/><rect x="453" y="453" width="11" height="11" transform="rotate(0,458.5,458.5)"/><rect x="464" y="156" width="11" height="11" transform="rotate(0,469.5,161.5)"/><rect x="464" y="167" width="11" height="11" transform="rotate(0,469.5,172.5)"/><rect x="464" y="178" width="11" height="11" transform="rotate(0,469.5,183.5)"/><rect x="464" y="189" width="11" height="11" transform="rotate(0,469.5,194.5)"/><rect x="464" y="222" width="11" height="11" transform="rotate(0,469.5,227.5)"/><rect x="464" y="233" width="11" height="11" transform="rotate(0,469.5,238.5)"/><rect x="464" y="244" width="11" height="11" transform="rotate(0,469.5,249.5)"/><rect x="464" y="255" width="11" height="11" transform="rotate(0,469.5,260.5)"/><rect x="464" y="266" width="11" height="11" transform="rotate(0,469.5,271.5)"/><rect x="464" y="343" width="11" height="11" transform="rotate(0,469.5,348.5)"/><rect x="464" y="354" width="11" height="11" transform="rotate(0,469.5,359.5)"/><rect x="464" y="376" width="11" height="11" transform="rotate(0,469.5,381.5)"/><rect x="464" y="387" width="11" height="11" transform="rotate(0,469.5,392.5)"/><rect x="464" y="409" width="11" height="11" transform="rotate(0,469.5,414.5)"/><rect x="464" y="420" width="11" height="11" transform="rotate(0,469.5,425.5)"/><rect x="464" y="431" width="11" height="11" transform="rotate(0,469.5,436.5)"/><rect x="464" y="453" width="11" height="11" transform="rotate(0,469.5,458.5)"/></clipPath><clipPath id="clip-path-corners-square-color-0-0"><path clip-rule="evenodd" d="M 24 24v 77h 77v -77zM 35 35h 55v 55h -55z" transform="rotate(0,62.5,62.5)"/></clipPath><clipPath id="clip-path-corners-dot-color-0-0"><rect x="46" y="46" width="33" height="33" transform="rotate(0,62.5,62.5)"/></clipPath><clipPath id="clip-path-corners-square-color-1-0"><path clip-rule="evenodd" d="M 398 24v 77h 77v -77zM 409 35h 55v 55h -55z" transform="rotate(90,436.5,62.5)"/></clipPath><clipPath id="clip-path-corners-dot-color-1-0"><rect x="420" y="46" width="33" height="33" transform="rotate(90,436.5,62.5)"/></clipPath><clipPath id="clip-path-corners-square-color-0-1"><path clip-rule="evenodd" d="M 24 398v 77h 77v -77zM 35 409h 55v 55h -55z" transform="rotate(-90,62.5,436.5)"/></clipPath><clipPath id="clip-path-corners-dot-color-0-1"><rect x="46" y="420" width="33" height="33" transform="rotate(-90,62.5,436.5)"/></clipPath></defs><rect x="0" y="0" height="500" width="500" clip-path="url('#clip-path-background-color')" fill="#fff"/><rect x="0" y="0" height="500" width="500" clip-path="url('#clip-path-dot-color')" fill="#000000"/><rect x="24" y="24" height="77" width="77" clip-path="url('#clip-path-corners-square-color-0-0')" fill="#000000"/><rect x="46" y="46" height="33" width="33" clip-path="url('#clip-path-corners-dot-color-0-0')" fill="#000000"/><rect x="398" y="24" height="77" width="77" clip-path="url('#clip-path-corners-square-color-1-0')" fill="#000000"/><rect x="420" y="46" height="33" width="33" clip-path="url('#clip-path-corners-dot-color-1-0')" fill="#000000"/><rect x="24" y="398" height="77" width="77" clip-path="url('#clip-path-corners-square-color-0-1')" fill="#000000"/><rect x="46" y="420" height="33" width="33" clip-path="url('#clip-path-corners-dot-color-0-1')" fill="#000000"/></svg>