<?xml version="1.0" encoding="UTF-8" standalone="no"?>
<!-- Created with Inkscape (http://www.inkscape.org/) -->

<svg
   width="158.34277mm"
   height="35.04903mm"
   viewBox="0 0 158.34277 35.04903"
   version="1.1"
   id="svg1"
   xmlns="http://www.w3.org/2000/svg"
   xmlns:svg="http://www.w3.org/2000/svg">
  <defs
     id="defs1" />
  <g
     id="layer1"
     transform="translate(-24.787965,-27.665824)">
    <g
       id="g72"
       transform="translate(25.64585,-184.48773)"
       style="fill:#000000">
      <g
         id="g88"
         transform="matrix(1.9450405,0,0,1.9450405,-65.225783,-193.60968)"
         style="fill:#000000">
        <path
           id="path67"
           style="font-style:normal;font-weight:bold;font-size:75.3147px;line-height:125%;font-family:Sans;-inkscape-font-specification:'Sans Bold';letter-spacing:0px;word-spacing:0px;fill:#000000;fill-opacity:1;stroke:none;stroke-width:0.0957791"
           d="m 61.176395,210.5194 h -1.725111 v 3.24727 c 0.02255,0 0.129662,0 0.321348,0 0.191687,-0.0113 0.372078,-0.0169 0.541218,-0.0169 0.180392,-0.0113 0.422807,-0.0282 0.727246,-0.0507 0.315712,-0.0338 0.558127,-0.0676 0.727245,-0.10148 0.180414,-0.0451 0.38335,-0.11274 0.608879,-0.20295 0.236756,-0.0902 0.411533,-0.19731 0.524286,-0.32135 0.293143,-0.29315 0.439738,-0.65395 0.439738,-1.08242 0,-0.72161 -0.40592,-1.17825 -1.217735,-1.36994 -0.270598,-0.0676 -0.586309,-0.10147 -0.947114,-0.10148 m 0.11839,4.56647 -1.843501,0.10148 v 3.39948 h 1.657473 c 0.732881,0 1.245894,-0.0338 1.539061,-0.10148 0.304416,-0.0677 0.563763,-0.14094 0.777996,-0.21986 0.21421,-0.0902 0.38335,-0.19168 0.507376,-0.30444 0.315712,-0.2706 0.473557,-0.62013 0.473557,-1.04859 0,-0.56376 -0.281893,-1.00913 -0.845635,-1.33612 -0.55249,-0.32697 -1.307941,-0.49046 -2.266327,-0.49047 m -3.92378,-6.3254 h 4.228218 c 1.10496,10e-6 1.961889,0.18605 2.570746,0.55812 0.597583,0.36082 0.997843,0.76673 1.200824,1.21773 0.191665,0.43974 0.281872,0.84565 0.270598,1.21772 0,0.37209 -0.101479,0.75545 -0.304438,1.15007 -0.191687,0.38337 -0.445375,0.70471 -0.761065,0.96404 0.913273,0.37208 1.510856,1.04296 1.792749,2.01262 0.07891,0.30444 0.118389,0.60323 0.118389,0.89638 0,0.28189 -0.03382,0.56377 -0.10148,0.84565 -0.06766,0.28188 -0.219868,0.60322 -0.456647,0.96403 -0.225506,0.34953 -0.518649,0.66524 -0.879454,0.94712 -0.360827,0.2706 -0.868203,0.50175 -1.522151,0.69343 -0.642698,0.1804 -1.381239,0.2706 -2.215601,0.2706 h -3.940688 v -11.73751" />
        <path
           id="path68"
           style="font-style:normal;font-weight:bold;font-size:75.3147px;line-height:125%;font-family:Sans;-inkscape-font-specification:'Sans Bold';letter-spacing:0px;word-spacing:0px;fill:#000000;fill-opacity:1;stroke:none;stroke-width:0.0957791"
           d="m 70.837345,212.71807 c 1.059867,-0.3608 2.035187,-0.5412 2.925936,-0.54121 0.902,1e-5 1.606699,0.0789 2.114098,0.23678 0.518649,0.15786 0.907636,0.38337 1.166984,0.67651 0.48483,0.52995 0.727245,1.21773 0.727245,2.06337 v 5.34446 h -1.522152 l -0.219869,-0.54121 c -0.744177,0.47356 -1.578539,0.71034 -2.503107,0.71034 -1.285373,0 -2.255033,-0.36645 -2.909004,-1.09934 -0.349532,-0.40591 -0.524286,-0.83436 -0.524286,-1.28537 0,-0.41719 0.05637,-0.76672 0.169118,-1.0486 0.112753,-0.29315 0.298803,-0.52993 0.558128,-0.71034 0.259324,-0.19167 0.535581,-0.34389 0.828724,-0.45665 0.293167,-0.12402 0.676517,-0.21422 1.150075,-0.2706 0.766723,-0.0902 1.747656,-0.1353 2.942845,-0.1353 v -0.1184 c -2.3e-5,-0.74416 -0.30444,-1.21771 -0.913296,-1.42067 -0.281893,-0.0902 -0.699085,-0.1353 -1.251553,-0.13531 -0.552491,1e-5 -1.313578,0.1184 -2.283239,0.35517 l -0.321348,0.10148 -0.422806,-1.64055 0.287507,-0.0846 m 4.904735,5.6658 v -1.1839 h -0.20296 c -1.240281,1e-5 -2.102847,0.0507 -2.587677,0.15222 -0.473558,0.10148 -0.710336,0.34953 -0.710336,0.74416 0,0.25934 0.152208,0.46229 0.456648,0.60887 0.315712,0.14658 0.77236,0.21986 1.369943,0.21986 0.597583,0 1.15571,-0.1804 1.674382,-0.54121" />
        <path
           id="path69"
           style="font-style:normal;font-weight:bold;font-size:75.3147px;line-height:125%;font-family:Sans;-inkscape-font-specification:'Sans Bold';letter-spacing:0px;word-spacing:0px;fill:#000000;fill-opacity:1;stroke:none;stroke-width:0.0957791"
           d="m 78.597548,212.34599 h 1.420671 l 0.270598,0.55812 c 1.059868,-0.48483 2.018278,-0.72724 2.875186,-0.72725 1.398124,1e-5 2.300147,0.51867 2.706066,1.55598 0.202937,0.51867 0.310053,1.16699 0.321326,1.94498 v 4.82016 h -2.046437 v -4.78634 c -2.2e-5,-0.57503 -0.124049,-0.98657 -0.372077,-1.23463 -0.259348,-0.2706 -0.670903,-0.4059 -1.234645,-0.40591 -0.552491,1e-5 -1.189551,0.15222 -1.91116,0.45664 v 5.97024 h -2.029528 v -8.15199" />
        <path
           id="path70"
           style="font-style:normal;font-weight:bold;font-size:75.3147px;line-height:125%;font-family:Sans;-inkscape-font-specification:'Sans Bold';letter-spacing:0px;word-spacing:0px;fill:#000000;fill-opacity:1;stroke:none;stroke-width:0.0957791"
           d="m 89.090473,215.61017 3.517882,-3.43331 h 2.435447 l -4.025258,3.73774 4.160557,4.58338 h -2.503108 l -3.58552,-4.05908 v 4.05908 h -2.029549 v -11.73752 h 2.029549 v 6.84971" />
        <path
           id="path71"
           style="font-style:normal;font-weight:bold;font-size:75.3147px;line-height:125%;font-family:Sans;-inkscape-font-specification:'Sans Bold';letter-spacing:0px;word-spacing:0px;fill:#000000;fill-opacity:1;stroke:none;stroke-width:0.0957791"
           d="m 100.59752,209.54032 c 1.08242,2e-5 2.05771,0.2368 2.92592,0.71035 0.86818,0.46229 1.55597,1.14444 2.06337,2.04645 0.51864,0.90202 0.77797,1.93934 0.77799,3.11196 -2e-5,1.80404 -0.55251,3.27546 -1.65747,4.41425 -1.09371,1.12753 -2.4862,1.69129 -4.17747,1.69129 -1.499603,0 -2.813181,-0.49048 -3.940687,-1.47142 -0.541218,-0.47356 -0.975319,-1.09933 -1.302281,-1.87733 -0.326986,-0.77798 -0.49049,-1.64618 -0.49049,-2.60457 0,-1.80403 0.546855,-3.25853 1.640563,-4.36352 1.104959,-1.10496 2.491812,-1.65744 4.160555,-1.65746 m 1.23462,2.14794 c -0.42846,-0.15785 -0.86818,-0.23677 -1.31919,-0.23678 -0.43974,1e-5 -0.8682,0.0789 -1.28537,0.23678 -0.417193,0.15786 -0.800543,0.389 -1.150074,0.69342 -0.349532,0.30444 -0.631425,0.71599 -0.845657,1.23464 -0.202938,0.51867 -0.304418,1.11062 -0.304418,1.77585 0,1.2741 0.355168,2.30015 1.065505,3.07814 0.710336,0.76671 1.595448,1.15007 2.655314,1.15007 0.9133,0 1.71948,-0.3157 2.41854,-0.94712 0.34953,-0.3157 0.6314,-0.74416 0.84563,-1.28538 0.21424,-0.5412 0.32135,-1.1557 0.32135,-1.8435 0,-0.69905 -0.11275,-1.31919 -0.33826,-1.86041 -0.21423,-0.5412 -0.5074,-0.96966 -0.87945,-1.28537 -0.36083,-0.3157 -0.75545,-0.55248 -1.18392,-0.71034" />
        <path
           id="path72"
           style="font-style:normal;font-weight:bold;font-size:75.3147px;line-height:125%;font-family:Sans;-inkscape-font-specification:'Sans Bold';letter-spacing:0px;word-spacing:0px;fill:#000000;fill-opacity:1;stroke:none;stroke-width:0.0957791"
           d="m 106.90795,212.34599 h 1.4207 l 0.27059,0.55812 c 1.05987,-0.48483 2.01825,-0.72724 2.87519,-0.72725 1.39813,1e-5 2.30014,0.51867 2.70604,1.55598 0.20296,0.51867 0.31007,1.16699 0.32135,1.94498 v 4.82016 h -2.04646 v -4.78634 c 0,-0.57503 -0.12402,-0.98657 -0.37208,-1.23463 -0.25932,-0.2706 -0.67088,-0.4059 -1.23462,-0.40591 -0.55249,1e-5 -1.18955,0.15222 -1.91116,0.45664 v 5.97024 h -2.02955 v -8.15199" />
        <path
           id="rect72"
           style="stroke-width:0.0957791"
           d="m 67.446198,208.75186 h 1.71223 c 0.148619,0 0.268265,0.11965 0.268265,0.26827 v 11.26715 c 0,0.14862 -0.119646,0.26826 -0.268265,0.26826 h -1.71223 c -0.148619,0 -0.268265,-0.11964 -0.268265,-0.26826 v -11.26715 c 0,-0.14862 0.119646,-0.26827 0.268265,-0.26827 z" />
      </g>
      <path
         style="font-weight:bold;font-size:11.3849px;font-family:Arial;-inkscape-font-specification:'Arial Bold';stroke-width:0.948743"
         d="m 46.340005,246.63382 v -8.14954 h 5.586829 v 1.37864 h -3.941355 v 1.92898 h 3.402128 v 1.37864 h -3.402128 v 3.46328 z m 6.609691,-4.02474 q 0,-1.24522 0.372455,-2.0902 0.277952,-0.62261 0.756028,-1.11736 0.483636,-0.49476 1.056217,-0.7338 0.761587,-0.32242 1.756654,-0.32242 1.801127,0 2.87958,1.11737 1.084011,1.11736 1.084011,3.1075 0,1.97345 -1.072893,3.09082 -1.072894,1.11181 -2.868462,1.11181 -1.817803,0 -2.890697,-1.10625 -1.072893,-1.11181 -1.072893,-3.05747 z m 1.695505,-0.0556 q 0,1.3842 0.639289,2.10131 0.639288,0.71156 1.623237,0.71156 0.983949,0 1.61212,-0.706 0.63373,-0.71155 0.63373,-2.12911 0,-1.40087 -0.617053,-2.09019 -0.611494,-0.68932 -1.628797,-0.68932 -1.017303,0 -1.639914,0.70043 -0.622612,0.69488 -0.622612,2.10132 z m 7.482459,-4.06921 h 1.645474 v 4.41387 q 0,1.05066 0.06115,1.36196 0.105622,0.50032 0.500313,0.80606 0.400251,0.30019 1.089571,0.30019 0.700438,0 1.056216,-0.28351 0.355778,-0.28907 0.428046,-0.706 0.07227,-0.41693 0.07227,-1.3842 v -4.50837 h 1.645474 v 4.28045 q 0,1.46759 -0.133417,2.07352 -0.133417,0.60594 -0.494754,1.02286 -0.355778,0.41693 -0.956154,0.66709 -0.600375,0.2446 -1.567647,0.2446 -1.167397,0 -1.773332,-0.26684 -0.600375,-0.27239 -0.950594,-0.70044 -0.350219,-0.4336 -0.4614,-0.90612 -0.161212,-0.70044 -0.161212,-2.06796 z m 8.249604,8.14954 v -8.14954 h 1.601002 l 3.33542,5.44229 v -5.44229 h 1.528734 v 8.14954 h -1.651033 l -3.285388,-5.31444 v 5.31444 z m 8.199574,-8.14954 h 3.007437 q 1.017303,0 1.55097,0.15565 0.717115,0.21124 1.228546,0.75047 0.511431,0.53923 0.778265,1.32305 0.266834,0.77826 0.266834,1.92342 0,1.00619 -0.250157,1.73442 -0.305747,0.88945 -0.872768,1.43979 -0.428046,0.41693 -1.156279,0.65041 -0.544785,0.17233 -1.456467,0.17233 h -3.096381 z m 1.645474,1.37864 v 5.39782 h 1.228546 q 0.68932,0 0.995067,-0.0778 0.40025,-0.10006 0.661525,-0.3391 0.266833,-0.23904 0.433604,-0.78382 0.166771,-0.55035 0.166771,-1.49538 0,-0.94504 -0.166771,-1.45091 -0.166771,-0.50587 -0.466958,-0.78938 -0.300188,-0.28351 -0.761588,-0.38358 -0.34466,-0.0778 -1.350845,-0.0778 z m 13.93094,6.7709 h -1.790009 l -0.711556,-1.85116 h -3.257594 l -0.672643,1.85116 h -1.745536 l 3.174208,-8.14954 h 1.739977 z m -3.029673,-3.22424 -1.122925,-3.02411 -1.100689,3.02411 z m 4.891947,3.22424 v -6.7709 h -2.41818 v -1.37864 h 6.476274 v 1.37864 H 97.661 v 6.7709 z m 5.069844,0 v -8.14954 h 1.64547 v 8.14954 z m 2.87958,-4.02474 q 0,-1.24522 0.37245,-2.0902 0.27795,-0.62261 0.75603,-1.11736 0.48364,-0.49476 1.05622,-0.7338 0.76158,-0.32242 1.75665,-0.32242 1.80113,0 2.87958,1.11737 1.08401,1.11736 1.08401,3.1075 0,1.97345 -1.07289,3.09082 -1.0729,1.11181 -2.86846,1.11181 -1.81781,0 -2.8907,-1.10625 -1.07289,-1.11181 -1.07289,-3.05747 z m 1.6955,-0.0556 q 0,1.3842 0.63929,2.10131 0.63929,0.71156 1.62324,0.71156 0.98395,0 1.61212,-0.706 0.63373,-0.71155 0.63373,-2.12911 0,-1.40087 -0.61706,-2.09019 -0.61149,-0.68932 -1.62879,-0.68932 -1.01731,0 -1.63992,0.70043 -0.62261,0.69488 -0.62261,2.10132 z m 7.51026,4.08033 v -8.14954 h 1.601 l 3.33542,5.44229 v -5.44229 h 1.52873 v 8.14954 h -1.65103 l -3.28539,-5.31444 v 5.31444 z"
         id="text88"
         transform="scale(0.99842647,1.001576)"
         aria-label="FOUNDATION" />
    </g>
    <path
       style="baseline-shift:baseline;display:inline;overflow:visible;vector-effect:none;enable-background:accumulate;stop-color:#000000;stop-opacity:1;opacity:1"
       d="m 42.087891,27.832031 c -9.513118,0 -17.300782,7.787655 -17.300782,17.300781 0,9.513127 7.787679,17.300782 17.300782,17.300782 9.513124,0 17.300781,-7.787655 17.300781,-17.300782 0,-9.513126 -7.787641,-17.300781 -17.300781,-17.300781 z m 0,7.070313 c 5.692479,0 10.232421,4.537995 10.232421,10.230468 0,5.692474 -4.539926,10.230469 -10.232421,10.230469 -5.692458,0 -10.230469,-4.537995 -10.230469,-10.230469 0,-5.692473 4.538026,-10.230468 10.230469,-10.230468 z"
       id="path80" />
    <path
       style="baseline-shift:baseline;display:inline;overflow:visible;vector-effect:none;fill:#ff0000;stroke-linecap:round;stroke-linejoin:round;enable-background:accumulate;stop-color:#000000"
       d="m 62.021484,27.666016 a 2.8739324,2.8739324 0 0 0 -2.873047,2.873046 v 29.302735 a 2.8739324,2.8739324 0 0 0 2.873047,2.873047 h 0.326172 a 2.8739324,2.8739324 0 0 0 2.873047,-2.873047 V 30.539062 a 2.8739324,2.8739324 0 0 0 -2.873047,-2.873046 z"
       id="path2" />
  </g>
</svg>
